<svg xmlns="http://www.w3.org/2000/svg" width="57.235" height="76.294" viewBox="0 0 57.235 76.294"><g transform="translate(-63.952)"><g transform="translate(86.217 22.252)"><g transform="translate(0)"><path d="M247.872,181.584l-31.789-31.789a1.591,1.591,0,0,0-2.715,1.125v44.015a1.591,1.591,0,0,0,2.569,1.253l8.068-6.31,7.045,12.678a1.593,1.593,0,0,0,2.1.648l9.537-4.768a1.587,1.587,0,0,0,.677-2.193L236.733,184.3h10.014a1.591,1.591,0,0,0,1.125-2.715Zm-13.841-.464a1.594,1.594,0,0,0-1.389,2.365l7.14,12.852-6.688,3.347-7.21-12.976a1.588,1.588,0,0,0-1.075-.788,1.514,1.514,0,0,0-.315-.032,1.577,1.577,0,0,0-.979.337l-6.968,5.449V154.757l26.363,26.363h-8.879Z" transform="translate(-213.368 -149.33)" fill="#fff"/></g></g><g transform="translate(63.952 0)"><path d="M110.071,15.316a23.843,23.843,0,1,0-31.983,30.3,1.59,1.59,0,0,0,1.294-2.906,20.663,20.663,0,1,1,27.291-10.446,1.589,1.589,0,0,0,2.9,1.294A23.68,23.68,0,0,0,110.071,15.316Z" transform="translate(-63.952 0)" fill="#fff"/></g><g transform="translate(73.494 9.529)"><g transform="translate(0)"><path d="M155.736,73.352a14.306,14.306,0,1,0-19.468,17.881,1.614,1.614,0,0,0,.668.146,1.59,1.59,0,0,0,.671-3.033,11.126,11.126,0,1,1,14.779-5.4,1.592,1.592,0,0,0,2.887,1.342A14.227,14.227,0,0,0,155.736,73.352Z" transform="translate(-127.986 -63.948)" fill="#fff"/></g></g></g></svg>