<svg xmlns="http://www.w3.org/2000/svg" width="67" height="67" viewBox="0 0 67 67"><g transform="translate(0.923 15)"><circle cx="33.5" cy="33.5" r="33.5" transform="translate(-0.923 -15)" fill="#c20404"/><path d="M41.457.008,36.627,0C31.2,0,27.693,3.6,27.693,9.167v4.227H22.837a.76.76,0,0,0-.76.76v6.124a.759.759,0,0,0,.76.76h4.857V36.488a.759.759,0,0,0,.76.76h6.336a.759.759,0,0,0,.76-.76V21.036h5.678a.759.759,0,0,0,.76-.76l0-6.124a.76.76,0,0,0-.76-.76h-5.68V9.81c0-1.722.41-2.6,2.654-2.6h3.254a.759.759,0,0,0,.759-.76V.767A.76.76,0,0,0,41.457.008Z" fill="#fff"/></g></svg>