<svg xmlns="http://www.w3.org/2000/svg" width="67" height="67" viewBox="0 0 67 67"><g transform="translate(16.774 16.755)"><circle cx="33.5" cy="33.5" r="33.5" transform="translate(-16.774 -16.755)" fill="#c20404"/><g transform="translate(0)"><path d="M22.63,0H10.286A10.287,10.287,0,0,0,0,10.286V22.63A10.287,10.287,0,0,0,10.286,32.916H22.63A10.287,10.287,0,0,0,32.916,22.63V10.286A10.287,10.287,0,0,0,22.63,0Zm7.2,22.63a7.208,7.208,0,0,1-7.2,7.2H10.286a7.208,7.208,0,0,1-7.2-7.2V10.286a7.208,7.208,0,0,1,7.2-7.2H22.63a7.208,7.208,0,0,1,7.2,7.2Z" fill="#fff"/></g><g transform="translate(8.229 8.229)"><path d="M136.229,128a8.229,8.229,0,1,0,8.229,8.229A8.229,8.229,0,0,0,136.229,128Zm0,13.372a5.143,5.143,0,1,1,5.143-5.143A5.15,5.15,0,0,1,136.229,141.372Z" transform="translate(-128 -128)" fill="#fff"/></g><g transform="translate(24.208 6.515)"><ellipse cx="1.097" cy="1.097" rx="1.097" ry="1.097" fill="#fff"/></g></g></svg>