<svg xmlns="http://www.w3.org/2000/svg" width="41.779" height="34.402" viewBox="0 0 41.779 34.402">
  <g id="mensagem" transform="translate(0 -0.5)">
    <path id="Caminho_354" data-name="Caminho 354" d="M33.211.5H8.568A8.578,8.578,0,0,0,0,9.068V22.3a8.43,8.43,0,0,0,6.062,8.1L10.2,34.544a1.224,1.224,0,0,0,1.731,0l3.8-3.8H33.211a8.578,8.578,0,0,0,8.568-8.568V9.068A8.578,8.578,0,0,0,33.211.5Zm6.12,21.679a6.127,6.127,0,0,1-6.12,6.12H15.22a1.224,1.224,0,0,0-.865.359l-3.289,3.289-3.5-3.5a1.223,1.223,0,0,0-.57-.322A5.986,5.986,0,0,1,2.448,22.3V9.068a6.127,6.127,0,0,1,6.12-6.12H33.211a6.127,6.127,0,0,1,6.12,6.12Zm0,0"/>
    <path id="Caminho_355" data-name="Caminho 355" d="M162.525,144.328H146.982a1.224,1.224,0,0,0,0,2.448h15.544a1.224,1.224,0,0,0,0-2.448Zm0,0" transform="translate(-133.864 -132.092)"/>
    <path id="Caminho_356" data-name="Caminho 356" d="M162.525,197.352H146.982a1.224,1.224,0,0,0,0,2.448h15.544a1.224,1.224,0,0,0,0-2.448Zm0,0" transform="translate(-133.864 -180.788)"/>
  </g>
</svg>
