<svg xmlns="http://www.w3.org/2000/svg" width="67" height="67" viewBox="0 0 67 67"><g transform="translate(12.973 16.755)"><circle cx="33.5" cy="33.5" r="33.5" transform="translate(-12.973 -16.755)" fill="#c20404"/><g transform="translate(0)"><path d="M40.512,51.9a17.316,17.316,0,0,1-4.785,1.312,8.259,8.259,0,0,0,3.654-4.59,16.6,16.6,0,0,1-5.267,2.01,8.3,8.3,0,0,0-14.366,5.679,8.552,8.552,0,0,0,.192,1.894A23.508,23.508,0,0,1,2.821,49.514a8.307,8.307,0,0,0,2.552,11.1A8.2,8.2,0,0,1,1.62,59.591v.091a8.343,8.343,0,0,0,6.654,8.161,8.289,8.289,0,0,1-2.178.273,7.343,7.343,0,0,1-1.572-.142,8.384,8.384,0,0,0,7.761,5.786A16.688,16.688,0,0,1,1.988,77.3,15.557,15.557,0,0,1,0,77.189a23.381,23.381,0,0,0,12.741,3.727c15.283,0,23.639-12.66,23.639-23.633,0-.367-.013-.722-.03-1.074A16.569,16.569,0,0,0,40.512,51.9Z" transform="translate(0 -48)" fill="#fff"/></g></g></svg>