<svg xmlns="http://www.w3.org/2000/svg" width="45.904" height="37.297" viewBox="0 0 45.904 37.297"><g transform="translate(0 -48)"><g transform="translate(0 48)"><path d="M45.9,52.415A19.62,19.62,0,0,1,40.481,53.9a9.358,9.358,0,0,0,4.14-5.2,18.807,18.807,0,0,1-5.967,2.278,9.41,9.41,0,0,0-16.279,6.435,9.69,9.69,0,0,0,.218,2.146A26.637,26.637,0,0,1,3.2,49.716,9.413,9.413,0,0,0,6.088,62.293a9.294,9.294,0,0,1-4.252-1.159v.1a9.454,9.454,0,0,0,7.54,9.247,9.393,9.393,0,0,1-2.467.31,8.321,8.321,0,0,1-1.782-.161,9.5,9.5,0,0,0,8.793,6.556A18.909,18.909,0,0,1,2.252,81.2,17.626,17.626,0,0,1,0,81.074,26.494,26.494,0,0,0,14.437,85.3c17.317,0,26.785-14.345,26.785-26.779,0-.416-.014-.818-.034-1.216A18.774,18.774,0,0,0,45.9,52.415Z" transform="translate(0 -48)" fill="#fff"/></g></g></svg>