<svg xmlns="http://www.w3.org/2000/svg" width="65.025" height="59.443" viewBox="0 0 65.025 59.443"><path d="M221.567,333.382a3.342,3.342,0,1,0,0,6.683,3.343,3.343,0,0,0,0-6.683Z" transform="translate(-189.055 -291.61)" fill="#fff"/><path d="M63.442,74.5a11.411,11.411,0,0,0,.027-11.549L42.536,26.7a11.533,11.533,0,0,0-20.024-.013L1.554,62.974a11.577,11.577,0,0,0,10.025,17.35H53.39A11.511,11.511,0,0,0,63.442,74.5ZM58.9,71.877a6.317,6.317,0,0,1-5.521,3.195H11.565a6.23,6.23,0,0,1-5.454-3.128A6.325,6.325,0,0,1,6.1,65.567L27.058,29.29a6.295,6.295,0,0,1,10.934.013L58.938,65.581A6.241,6.241,0,0,1,58.9,71.877Z" transform="translate(0 -20.882)" fill="#fff"/><path d="M220.3,157.271a3.634,3.634,0,0,0-2.58,3.649c.08,1.056.147,2.125.227,3.181.227,4.023.454,7.967.682,11.99a2.449,2.449,0,0,0,2.5,2.353,2.5,2.5,0,0,0,2.5-2.433c0-.829,0-1.591.08-2.433.147-2.58.307-5.16.454-7.739.08-1.671.227-3.342.307-5.013a4.128,4.128,0,0,0-.307-1.671A3.35,3.35,0,0,0,220.3,157.271Z" transform="translate(-188.622 -138.958)" fill="#fff"/></svg>